# xmcd
#
# Track frame offsets: 
#        150
#        12675
#        31849
#        47581
#        70603
#        86541
#        105369
#        131153
#        144253
#        163997
#        183927
#        201858
#
# Disc length: 2902 seconds
#
# Revision: 0
# Processed by: cddbd v1.5.2PL0 Copyright (c) Steve Scherf et al.
# Submitted via: ExactAudioCopyFreeDBPlugin 1.0
#
DISCID=9d0b540c
DTITLE=Brad Hatfield - For A Change
DYEAR=2014
DGENRE=Blues
TTITLE0=That's My Home
TTITLE1=Back Door Scratchin'
TTITLE2=Behave Yourself
TTITLE3=Smarter Than I Was
TTITLE4=Devil On Both Shoulders
TTITLE5=So Much, So Little
TTITLE6=Never Finished Nothin'
TTITLE7=Good Love After Bad
TTITLE8=Drink, Drank, Drunk
TTITLE9=For A Change
TTITLE10=Swamp Poker
TTITLE11=Burbank's Boogie
EXTD=
EXTT0=
EXTT1=
EXTT2=
EXTT3=
EXTT4=
EXTT5=
EXTT6=
EXTT7=
EXTT8=
EXTT9=
EXTT10=
EXTT11=
PLAYORDER=
